<?xml version="1.0" standalone="no"?>
<!DOCTYPE svg PUBLIC "-//W3C//DTD SVG 20010904//EN"
 "http://www.w3.org/TR/2001/REC-SVG-20010904/DTD/svg10.dtd">
<svg version="1.0" xmlns="http://www.w3.org/2000/svg"
 width="256.000000pt" height="256.000000pt" viewBox="0 0 256.000000 256.000000"
 preserveAspectRatio="xMidYMid meet">
<metadata>
Created by potrace 1.14, written by Peter Selinger 2001-2017
</metadata>
<g transform="translate(0.000000,256.000000) scale(0.100000,-0.100000)"
fill="#000000" stroke="none">
<path d="M0 1280 l0 -1280 1280 0 1280 0 0 1280 0 1280 -1280 0 -1280 0 0
-1280z m1834 804 c132 -25 243 -48 245 -50 4 -4 -177 -1177 -187 -1211 -5 -15
-59 200 -156 620 -172 740 -160 687 -151 687 4 0 116 -21 249 -46z m-1067
-614 c3 0 96 86 207 192 110 106 218 208 238 227 l37 34 113 -43 c62 -23 117
-46 121 -50 5 -4 -68 -92 -162 -195 -94 -103 -171 -193 -171 -200 0 -11 211
-782 225 -822 3 -10 -26 -13 -123 -13 l-128 0 -83 288 c-46 158 -88 302 -93
320 l-9 33 -90 -82 -89 -81 0 -241 0 -240 -107 6 c-58 4 -121 7 -140 7 l-33 0
0 679 0 679 138 34 137 34 3 -283 c1 -156 5 -283 9 -283z m1204 -855 c16 -44
29 -85 29 -92 0 -7 -32 -31 -71 -53 l-70 -42 -75 49 c-84 54 -83 49 -34 157
l30 67 81 -3 81 -3 29 -80z"/>
</g>
</svg>
